<svg id="visual" viewBox="0 0 900 600" width="900" height="600" xmlns="http://www.w3.org/2000/svg" xmlns:xlink="http://www.w3.org/1999/xlink" version="1.1"><rect x="0" y="0" width="900" height="600" fill="#ffffff"></rect><g transform="translate(871.5255022330939 54.1971364678042)"><path d="M221.3 -341.4C267.7 -356.6 272.8 -258.6 277.7 -182.8C282.7 -107 287.3 -53.5 314.6 15.7C341.9 85 391.8 170 365.6 209C339.4 247.9 237.2 240.9 163.6 198.4C90 155.9 45 77.9 4.2 70.7C-36.7 63.5 -73.3 127 -130.2 159.9C-187.1 192.7 -264.1 194.8 -293.6 163.1C-323.1 131.3 -305.1 65.7 -304.5 0.3C-303.9 -65 -320.8 -130 -314.7 -202.2C-308.5 -274.3 -279.2 -353.7 -223 -332.7C-166.7 -311.7 -83.3 -190.3 2.1 -193.9C87.5 -197.6 175 -326.1 221.3 -341.4" fill="#ffe3e1"></path></g></svg>