<svg id="visual" viewBox="0 0 900 600" width="900" height="600" xmlns="http://www.w3.org/2000/svg" xmlns:xlink="http://www.w3.org/1999/xlink" version="1.1"><rect x="0" y="0" width="900" height="600" fill="#ffffff"></rect><g transform="translate(934.5753322590566 56.28214578394946)"><path d="M193 -384.4C211.1 -323.9 159.7 -193.2 176.3 -117.4C192.8 -41.7 277.4 -20.8 259.4 -10.4C241.3 0 120.7 0 98.3 65.8C76 131.6 152 263.3 152 300.3C152 337.3 76 279.6 14.3 254.8C-47.3 230 -94.7 238 -155.6 236.1C-216.5 234.3 -291 222.7 -318.1 181.7C-345.3 140.7 -325.2 70.3 -298.7 15.3C-272.3 -39.8 -239.7 -79.7 -196.9 -93.7C-154.2 -107.7 -101.3 -95.8 -66.8 -146.8C-32.3 -197.7 -16.2 -311.3 35.7 -373.1C87.5 -434.9 175 -444.8 193 -384.4" fill="#CAE3FB"></path></g></svg>