<svg id="visual" viewBox="0 0 900 600" width="900" height="600" xmlns="http://www.w3.org/2000/svg" xmlns:xlink="http://www.w3.org/1999/xlink" version="1.1"><rect x="0" y="0" width="900" height="600" fill="#ffffff"></rect><g transform="translate(932.1157873253777 -53.055606417795886)"><path d="M127.8 -186.3C203.6 -177.6 329.1 -220 368.6 -197.5C408.1 -175 361.6 -87.5 329.2 -18.7C296.9 50.2 278.8 100.3 268.4 173.2C257.9 246.1 255.2 341.7 211.8 343.6C168.3 345.6 84.2 253.8 7.8 240.4C-68.7 226.9 -137.3 291.9 -196.5 299C-255.7 306.2 -305.4 255.6 -356.9 196.1C-408.4 136.7 -461.7 68.3 -444.8 9.8C-427.9 -48.8 -340.8 -97.7 -255 -97.7C-169.2 -97.7 -84.6 -48.8 -42.3 -76.9C0 -105 0 -210 13 -232.5C26 -255 52 -195.1 127.8 -186.3" fill="#ffefda"></path></g></svg>