<svg version="1.1" id="Layer_1" xmlns="http://www.w3.org/2000/svg" xmlns:xlink="http://www.w3.org/1999/xlink" x="0px" y="0px"
	 width="100%" viewBox="0 0 644 592" enable-background="new 0 0 644 592" xml:space="preserve">
<path fill="#FFFFFF" opacity="1.000000" stroke="none" 
	d="
M430.000000,593.000000 
	C286.666687,593.000000 143.833389,593.000000 1.000057,593.000000 
	C1.000038,395.666718 1.000038,198.333450 1.000019,1.000137 
	C215.666565,1.000091 430.333130,1.000091 644.999756,1.000046 
	C644.999878,198.333191 644.999878,395.666382 644.999939,592.999756 
	C573.500000,593.000000 502.000000,593.000000 430.000000,593.000000 
M429.187958,377.958801 
	C432.795624,372.774902 436.679382,367.754761 439.892975,362.337097 
	C441.471039,359.676758 442.581177,356.281433 442.589447,353.215149 
	C442.745392,295.556702 442.288971,237.892273 443.041992,180.243225 
	C443.199371,168.195999 439.704498,159.944931 430.861603,152.464600 
	C427.065704,149.253601 423.707581,148.024826 418.974152,148.032913 
	C351.492645,148.148163 284.010834,148.139206 216.529312,148.030060 
	C213.145172,148.024597 211.377548,149.420319 209.134048,151.711639 
	C202.813614,158.166733 200.781433,165.352798 200.819504,174.486206 
	C201.174423,259.639893 201.210129,344.796570 200.782379,429.949585 
	C200.733459,439.689819 203.040680,446.117157 211.622681,450.934845 
	C215.952988,453.365753 219.801392,455.166504 224.907654,455.107910 
	C246.401917,454.861115 267.922150,454.433716 289.388641,455.244202 
	C300.096771,455.648529 308.983734,453.400879 316.242188,445.652405 
	C317.740234,444.053284 319.150513,441.596741 319.177704,439.516815 
	C319.408447,421.855530 319.309631,404.189941 319.309631,386.525665 
	C319.309631,384.782562 319.309601,383.039459 319.309601,381.065613 
	C321.756378,381.065613 323.577087,381.066040 325.397797,381.065552 
	C357.893372,381.057037 390.389160,381.090271 422.884064,380.937836 
	C424.875275,380.928497 426.859589,379.450226 429.187958,377.958801 
z"/>
<path fill="#020201" opacity="1.000000" stroke="none" 
	d="
M429.017517,378.307129 
	C426.859589,379.450226 424.875275,380.928497 422.884064,380.937836 
	C390.389160,381.090271 357.893372,381.057037 325.397797,381.065552 
	C323.577087,381.066040 321.756378,381.065613 319.309601,381.065613 
	C319.309601,383.039459 319.309631,384.782562 319.309631,386.525665 
	C319.309631,404.189941 319.408447,421.855530 319.177704,439.516815 
	C319.150513,441.596741 317.740234,444.053284 316.242188,445.652405 
	C308.983734,453.400879 300.096771,455.648529 289.388641,455.244202 
	C267.922150,454.433716 246.401917,454.861115 224.907654,455.107910 
	C219.801392,455.166504 215.952988,453.365753 211.622681,450.934845 
	C203.040680,446.117157 200.733459,439.689819 200.782379,429.949585 
	C201.210129,344.796570 201.174423,259.639893 200.819504,174.486206 
	C200.781433,165.352798 202.813614,158.166733 209.134048,151.711639 
	C211.377548,149.420319 213.145172,148.024597 216.529312,148.030060 
	C284.010834,148.139206 351.492645,148.148163 418.974152,148.032913 
	C423.707581,148.024826 427.065704,149.253601 430.861603,152.464600 
	C439.704498,159.944931 443.199371,168.195999 443.041992,180.243225 
	C442.288971,237.892273 442.745392,295.556702 442.589447,353.215149 
	C442.581177,356.281433 441.471039,359.676758 439.892975,362.337097 
	C436.679382,367.754761 432.795624,372.774902 429.017517,378.307129 
M299.775055,318.354614 
	C299.775055,270.322571 299.775055,222.290558 299.775055,174.366150 
	C286.495697,174.366150 274.094360,174.366150 261.753235,174.366150 
	C261.753235,233.543259 261.753235,292.374542 261.753235,351.212189 
	C274.782135,351.212189 287.394531,351.212189 300.928986,351.415558 
	C340.641968,351.415558 380.354919,351.415558 420.051453,351.415558 
	C420.051453,340.399017 420.051453,330.149506 420.051453,319.318390 
	C379.811127,319.318390 339.882660,319.318390 299.775055,318.354614 
M318.074402,209.500000 
	C318.074402,240.620026 318.074402,271.740051 318.074402,303.002502 
	C352.403473,303.002502 386.252625,303.002502 420.109436,303.002502 
	C420.109436,260.306305 420.109436,218.038620 420.109436,175.626495 
	C385.992065,175.626495 352.134888,175.626495 318.074402,175.626495 
	C318.074402,186.849533 318.074402,197.674774 318.074402,209.500000 
M222.003494,340.500000 
	C222.003494,366.259674 222.003494,392.019379 222.003494,417.791901 
	C247.720093,417.791901 272.818787,417.791901 298.046051,417.791901 
	C298.046051,405.507294 298.046051,393.462708 298.046051,380.854095 
	C279.516968,380.854095 261.302216,380.854095 242.795364,380.854095 
	C242.795364,311.687531 242.795364,243.087067 242.795364,174.326538 
	C235.766205,174.326538 229.046005,174.326538 222.003494,174.326538 
	C222.003494,229.576630 222.003494,284.538300 222.003494,340.500000 
z"/>
<path fill="#FEC80E" opacity="1.000000" stroke="none" 
	d="
M318.074402,209.000000 
	C318.074402,197.674774 318.074402,186.849533 318.074402,175.626495 
	C352.134888,175.626495 385.992065,175.626495 420.109436,175.626495 
	C420.109436,218.038620 420.109436,260.306305 420.109436,303.002502 
	C386.252625,303.002502 352.403473,303.002502 318.074402,303.002502 
	C318.074402,271.740051 318.074402,240.620026 318.074402,209.000000 
z"/>
<path fill="#FEC80E" opacity="1.000000" stroke="none" 
	d="
M222.003494,340.000000 
	C222.003494,284.538300 222.003494,229.576630 222.003494,174.326538 
	C229.046005,174.326538 235.766205,174.326538 242.795364,174.326538 
	C242.795364,243.087067 242.795364,311.687531 242.795364,380.854095 
	C261.302216,380.854095 279.516968,380.854095 298.046051,380.854095 
	C298.046051,393.462708 298.046051,405.507294 298.046051,417.791901 
	C272.818787,417.791901 247.720093,417.791901 222.003494,417.791901 
	C222.003494,392.019379 222.003494,366.259674 222.003494,340.000000 
z"/>
<path fill="#F67C25" opacity="1.000000" stroke="none" 
	d="
M300.006927,351.212189 
	C287.394531,351.212189 274.782135,351.212189 261.753235,351.212189 
	C261.753235,292.374542 261.753235,233.543259 261.753235,174.366150 
	C274.094360,174.366150 286.495697,174.366150 299.775055,174.366150 
	C299.775055,222.290558 299.775055,270.322571 299.877930,319.283142 
	C299.989471,330.545166 299.998199,340.878662 300.006927,351.212189 
z"/>
<path fill="#FFC90E" opacity="1.000000" stroke="none" 
	d="
M300.467957,351.313873 
	C299.998199,340.878662 299.989471,330.545166 299.967468,319.765015 
	C339.882660,319.318390 379.811127,319.318390 420.051453,319.318390 
	C420.051453,330.149506 420.051453,340.399017 420.051453,351.415558 
	C380.354919,351.415558 340.641968,351.415558 300.467957,351.313873 
z"/>
</svg>